<svg version="1.1" xmlns="http://www.w3.org/2000/svg" viewBox="0 0 316.7273406982422 255.77272033691406" width="950.1820220947266" height="767.3181610107422">
  <!-- svg-source:excalidraw -->
  
  <defs>
    <style>
      @font-face {
        font-family: "Virgil";
        src: url("https://excalidraw.com/Virgil.woff2");
      }
      @font-face {
        font-family: "Cascadia";
        src: url("https://excalidraw.com/Cascadia.woff2");
      }
    </style>
  </defs>
  <g transform="translate(10 79.40907287597656) rotate(0 118.5 17.5)"><text x="118.5" y="25" font-family="Virgil, Segoe UI Emoji" font-size="28px" fill="#000000" text-anchor="middle" style="white-space: pre;" direction="ltr">Hello, aoi.js user!</text></g><g stroke-linecap="round" transform="translate(39.727264404296875 129.77268981933594) rotate(0 117.81818389892578 11.272750854492188)"><path d="M-1.34 1.31 C63.1 -0.76, 125.9 -1.42, 234.32 -1.18 M-0.58 -0.37 C92.29 -1.77, 185.26 -2.13, 235.24 0.39 M236.45 -0.07 C234.92 2.6, 236.11 10.34, 236.82 23.95 M236.27 0.15 C235.81 4.64, 235.24 10.37, 235.18 22.25 M236.87 22.38 C180.66 21.79, 130.33 23.66, -0.34 22.17 M234.87 22.05 C177.66 22.09, 120.6 21.25, 0.28 21.8 M0.15 22.77 C1.1 17.95, -1.49 9.64, 1.83 -1.11 M-0.43 23.44 C0.2 15.26, -0.07 8.66, -0.8 -0.01" stroke="#000000" stroke-width="1" fill="none"></path></g><g stroke-linecap="round" transform="translate(39.72723388671875 151.9545135498047) rotate(0 118.00000762939453 46.90910339355469)"><path d="M-1.26 0.71 C70.78 2.49, 141.54 0.23, 237.29 -0.77 M-0.65 0.18 C67.01 -1.34, 134.82 -1.34, 235.44 0.61 M234.08 0.65 C234.15 34.34, 234.89 69.64, 237.64 95.36 M235.07 0.58 C236.02 36.89, 236.51 72.78, 235.62 94.38 M236.83 94.58 C162.28 94.22, 85.56 92.03, -1.32 94.48 M235.6 93.23 C182.15 95.8, 130.42 94.71, -0.76 94.3 M0.61 93.82 C-2.64 59.54, -1.91 28.44, 1.04 0.64 M-0.71 93.88 C-0.56 64.69, -1.17 34.54, 0.22 -0.09" stroke="#000000" stroke-width="1" fill="none"></path></g><g transform="translate(72.09090423583984 129.8636016845703) rotate(0 53.5 12.5)"><text x="0" y="18" font-family="Virgil, Segoe UI Emoji" font-size="20px" fill="#000000" text-anchor="start" style="white-space: pre;" direction="ltr">placeholder</text></g><g stroke-linecap="round" transform="translate(44.45453643798828 158.49998474121094) rotate(0 111.27273178100586 17.090927124023438)"><path d="M0.72 -1.25 C81.12 -2.13, 158.81 -1.92, 222.15 -0.49 M-0.4 0.53 C88.34 2.13, 176.2 1.44, 222.89 0.45 M222.92 -0.19 C221.09 9.84, 222.86 17.58, 221.56 35.01 M221.93 0.72 C223.83 13.92, 222.06 26.59, 223.53 34.34 M222.62 32.64 C144.7 32.57, 71.35 33.55, 1.08 33.72 M222.66 34.96 C141.08 35.24, 60.55 35.64, -0.68 34.11 M-1.39 34.26 C-0.91 18.89, 0.87 8.26, -1.67 1.57 M-0.61 33.29 C0.91 26.33, 0.23 16.54, 0.09 -0.12" stroke="#000000" stroke-width="1" fill="none"></path></g><g stroke-linecap="round" transform="translate(46.45453643798828 205.9545440673828) rotate(0 111.27273178100586 17.090927124023438)"><path d="M1.11 1.07 C46.29 2.35, 89.58 2.04, 222.8 -0.35 M-0.51 0.52 C83.64 -0.93, 166.96 -0.73, 222.13 -0.86 M221.05 -0.98 C221.27 12.01, 223.05 26.27, 224.54 34.49 M222.85 -0.68 C223.35 12.66, 222.15 25.21, 223.39 34.09 M224.07 34.21 C172.57 31.79, 123.05 32.89, -0.37 33.82 M222 34.24 C145.29 33.09, 69.7 34.13, -0.43 33.84 M1.14 32.88 C-0.71 24.28, -2.14 12.57, -0.97 0.08 M0.71 34.26 C-0.28 25.82, 0.97 15.38, -0.26 0.86" stroke="#000000" stroke-width="1" fill="none"></path></g><g transform="translate(65.18180847167969 163.68177795410156) rotate(0 42.5 12.5)"><text x="0" y="18" font-family="Virgil, Segoe UI Emoji" font-size="20px" fill="#000000" text-anchor="start" style="white-space: pre;" direction="ltr">A Option</text></g><g transform="translate(63.72728729248047 209.4999542236328) rotate(0 43 12.5)"><text x="0" y="18" font-family="Virgil, Segoe UI Emoji" font-size="20px" fill="#000000" text-anchor="start" style="white-space: pre;" direction="ltr">B Option</text></g><g stroke-linecap="round"><g transform="translate(304.37823864630764 51.16500779205214) rotate(353.7690684531655 -31.650208415122563 37.83674141418858)"><path d="M0 0 C-17.89 21.38, -35.77 42.76, -63.3 75.67 M0 0 C-19.26 23.02, -38.52 46.05, -63.3 75.67" stroke="#000000" stroke-width="1" fill="none"></path></g><g transform="translate(304.37823864630764 51.16500779205214) rotate(353.7690684531655 -31.650208415122563 37.83674141418858)"><path d="M-53.08 47.47 C-55.97 55.44, -58.86 63.41, -63.3 75.67 M-53.08 47.47 C-56.19 56.05, -59.3 64.63, -63.3 75.67" stroke="#000000" stroke-width="1" fill="none"></path></g><g transform="translate(304.37823864630764 51.16500779205214) rotate(353.7690684531655 -31.650208415122563 37.83674141418858)"><path d="M-37.34 60.63 C-44.68 64.88, -52.01 69.13, -63.3 75.67 M-37.34 60.63 C-45.24 65.21, -53.14 69.79, -63.3 75.67" stroke="#000000" stroke-width="1" fill="none"></path></g></g><g transform="translate(140.7273406982422 10) rotate(0 83 17.5)"><text x="83" y="25" font-family="Virgil, Segoe UI Emoji" font-size="28px" fill="#000000" text-anchor="middle" style="white-space: pre;" direction="ltr">Select Menu</text></g></svg>
